<?xml version="1.0" encoding="UTF-8"?>
<svg id="Layer_1" data-name="Layer 1" xmlns="http://www.w3.org/2000/svg" viewBox="0 0 1601.38 1784.68">
  <path d="M1597.63,1241.88c.01-5.98.01-11.95,0-17.93-.01-6.34-.02-12.68-.01-19.02,0-11.32,0-22.64-.02-33.96-.02-10.99-.03-21.97-.03-32.96,0-12.71,0-25.42,0-38.13,0-5.09,0-10.18,0-15.27,0-6.08,0-12.16-.01-18.23l-.02-6.72c0-3.11,0-6.23,0-9.34v-2.83c.02-7.47-.89-14.15-3.06-21.31-2.79-6.75-6.92-11.48-13.67-14.5-10.5-3.47-20.48-1.88-30.51,2.41l-2.09.94c-8.53,3.82-16.54,8.43-24.57,13.2-6.14,3.65-12.3,7.23-18.54,10.71-9.39,5.21-18.74,10.49-28.06,15.82-8.38,4.81-16.78,9.59-25.21,14.31-9.33,5.2-18.63,10.45-27.9,15.75-11.93,6.83-23.89,13.63-35.86,20.38l-11.52,6.5-2.91,1.64c-5.58,3.15-11.16,6.31-16.71,9.5-7.87,4.52-15.75,9.01-23.73,13.33-8.66,4.67-17.25,9.5-25.74,14.48-8.1,4.76-16.23,9.43-24.44,14-8.39,4.68-16.75,9.39-25.09,14.17-9.19,5.26-18.38,10.51-27.6,15.71-5.51,3.1-11.01,6.21-16.49,9.37-17.13,9.88-34.91,22.77-55.26,23.32-10.13-.3-18.1-2.44-25.54-9.57-9.33-9.69-11.38-18.41-11.29-31.66.01-1.57.01-3.14.01-4.71-.02-4.35-.02-8.7-.01-13.05.02-4.75.01-9.5,0-14.25-.02-8.24-.02-16.47-.01-24.71.01-12.03.01-24.06,0-36.08-.03-19.52-.04-39.03-.04-58.55v-3.55c0-17.81,0-35.61,0-53.42,0-20.76-.02-41.52-.04-62.29-.01-12.06-.02-24.11-.01-36.17,0-8.33,0-16.66,0-25,0-4.82-.02-9.63,0-14.45.01-4.45.02-8.9,0-13.35,0-1.64,0-3.27-.01-4.91.03-5.59.01-11.15-.37-16.73-1.31-9.89-2.98-20.31-11.19-26.88h0q-20.77-13.05-64.49,12.52c-1.63.95-3.26,1.91-4.9,2.85-6.03,3.5-12.05,7.01-18.06,10.53l-3.37,1.97-16.35,9.59c-11.24,6.59-22.49,13.16-33.75,19.72-14.43,8.4-28.85,16.83-43.25,25.28-5.29,3.11-10.57,6.21-15.88,9.29-14.24,8.23-28.35,16.64-42.22,25.49l-2.55,1.63c-6.36,4.08-12.45,8.25-17.94,13.5-17.84,18.88-18.52,41.69-18.48,66.25,0,3.74,0,7.48-.01,11.22-.02,6.5-.03,13-.04,19.5,0,9.52-.02,19.03-.04,28.55-.04,15.51-.07,31.02-.08,46.53-.02,15-.04,30-.06,45.01v2.79c-.02,10.11-.04,20.23-.06,30.34v2.72s-.03,10.8-.03,10.8c-.02,9.59-.04,19.17-.05,28.76-.03,29.3.01,58.61-.48,87.91l-.11,6.37c-.04,2.9-.09,5.79-.15,8.69l-.06,2.59c-.07,5.16-.43,9.66-2.41,14.49-4.44,6.68-10.81,12.01-18.31,14.88q-17.2,4.45-52.69-16.03l-3.2-1.85c-8.62-4.98-17.22-9.98-25.81-15-12.64-7.38-25.32-14.69-38-22s-25.36-14.62-38-22c-8.32-4.86-16.65-9.69-25-14.5-7.36-4.23-14.71-8.49-22.04-12.77-13.62-7.96-27.29-15.85-40.96-23.73-12.68-7.31-25.36-14.62-38-22-8.32-4.86-16.65-9.69-25-14.5-6.34-3.65-12.67-7.31-18.99-11-3.92-2.29-7.84-4.58-11.76-6.87-2.67-1.55-5.34-3.11-8.01-4.67-3.11-1.82-6.23-3.64-9.34-5.45-1.24-.71-2.47-1.43-3.71-2.15-9.7-5.7-19.4-11.91-31-11.78l-2.12.09c-8.94.12-16.09,1.69-22.84,7.96-7.05,8.49-8.67,19.45-8.75,30.15.02,2.04.03,4.09.03,6.13-.02,3.86-.02,7.73,0,11.59.02,4.21.02,8.43.01,12.64-.01,8.27-.01,16.54,0,24.81.02,9.73.03,19.46.03,29.19,0,17.37.01,34.73.04,52.1.03,16.86.05,33.73.05,50.59v6.29c0,19.32,0,38.64.03,57.96,0,6.8.01,13.59.01,20.39,0,8.36,0,16.72.02,25.08.01,4.29.02,8.58.02,12.86,0,15.59-.03,31.14,1.22,46.69,2.38,28.38,12.3,53,34.47,71.76l2.59,2.11q9.7,8.32,35.36,23.63c5.4,3.23,10.79,6.48,16.17,9.76,2.9,1.77,5.81,3.53,8.72,5.3,1.17.71,2.33,1.42,3.5,2.13l91,55.25,1.75,1.06,3.5,2.12,8.74,5.31,15.84,9.61,5.39,3.27,7.1,4.31c5.06,3.07,10.11,6.14,15.16,9.22,54.98,33.62,116.04,62.81,182.55,51.42l2.21-.39c30.19-5.15,60.01-14.78,86.5-30.35q4.6-2.72,14.17-8.17c3.02-1.72,6.03-3.44,9.05-5.17,4.89-2.8,9.79-5.6,14.69-8.39,10.63-6.06,21.26-12.12,31.81-18.3,8-4.69,16.03-9.34,24.13-13.86,9.21-5.13,18.37-10.3,27.46-15.63,8.03-4.71,16.09-9.38,24.17-13.99l1.77-1.01,8.89-5.07c5.91-3.37,11.82-6.74,17.73-10.11l1.76-1c8.97-5.12,17.93-10.27,26.88-15.44,8.4-4.85,16.81-9.68,25.23-14.49,9.6-5.48,19.2-10.98,28.77-16.51,8.4-4.85,16.81-9.68,25.23-14.49,8.53-4.86,17.05-9.75,25.56-14.65,9.43-5.45,18.87-10.88,28.33-16.29l1.76-1,12.35-7.05c4.71-2.69,9.42-5.38,14.14-8.07l1.76-1c8.97-5.12,17.93-10.27,26.88-15.44,8.4-4.85,16.81-9.68,25.23-14.49,9.6-5.48,19.2-10.98,28.77-16.51,8.4-4.85,16.81-9.68,25.23-14.49,8.53-4.86,17.05-9.75,25.56-14.65,9.43-5.45,18.87-10.88,28.33-16.29l1.76-1c5.3-3.03,10.61-6.06,15.91-9.08,6.48-3.69,12.96-7.39,19.44-11.1,2.26-1.3,4.52-2.59,6.78-3.88,13.47-7.66,26.71-15.36,39.16-24.62l1.84-1.38c2.78-2.07,5.54-4.17,8.27-6.3,2.1-1.65,4.19-3.3,6.33-4.89,14.3-10.52,27.58-23.18,38.48-37.21l1.91-2.6c21.7-29.32,28.51-63.52,28.39-99.38,0-2.18-.01-4.35,0-6.53ZM1485.64,1251.56c-2.91,9.12-8.04,15.77-16.57,20.22-7.55,3.51-14.82,3.9-22.72,1.34-5.98-.97-10.44,1.73-15.34,4.79-1.52.92-3.03,1.83-4.55,2.75q-.42.25-2.51,1.52c-5.01,3-10.07,5.89-15.13,8.8l-6.74,3.88-6.82,3.93c-12.68,7.31-25.36,14.62-38,22-11.55,6.75-23.13,13.43-34.72,20.11-5.43,3.13-10.86,6.26-16.28,9.39l-6.5,3.75-3.25,1.88-65,37.5-6.5,3.75c-5.44,3.14-10.88,6.28-16.32,9.41-10.5,6.04-20.97,12.11-31.43,18.21-11.55,6.75-23.13,13.43-34.72,20.11-5.43,3.13-10.86,6.26-16.28,9.39l-6.5,3.75-3.25,1.88-117,67.5-6.5,3.75c-5.4,3.12-10.81,6.23-16.21,9.34-11.12,6.39-22.2,12.86-33.22,19.41-11.13,6.62-22.35,13.08-33.66,19.39-2.53,1.42-5.06,2.86-7.58,4.31-19.66,11.21-40.47,20.42-62.07,27.17l-2.22.7c-52.35,16.33-99.59,8.94-147.49-16.15-10.64-5.66-21.06-11.68-31.41-17.85-2.83-1.68-5.67-3.36-8.52-5.02-9.76-5.72-19.44-11.56-29.05-17.54-7.3-4.54-14.64-9.01-21.99-13.46-10.18-6.17-20.34-12.38-30.47-18.64-9.62-5.93-19.28-11.79-28.95-17.65l-3.39-2.05-3.01-1.82c-1.85-1.14-3.69-2.32-5.5-3.53-1.86.2-3.72.42-5.57.69-10.92,1.39-19.84.16-28.68-6.69-6.68-6.39-10.08-13.97-10.38-23.19.5-10.05,4.32-16.99,11.62-23.81,6.57-5.28,13.54-7.37,21.94-6.94,7.99,1.06,14.85,4.8,20.06,10.94l2.12,2.38c4.32,6.05,5.2,10.55,4.88,17.88,1.68,4.66,5.86,6.31,9.99,8.75l6.09,3.74c1.69,1.02,3.38,2.04,5.07,3.06,3.11,1.87,6.21,3.75,9.31,5.63l1.92,1.16c6.22,3.78,12.43,7.58,18.62,11.41,11.96,7.38,23.97,14.68,35.99,21.96,3.65,2.21,7.3,4.43,10.94,6.66q112.27,68.63,175.82,53.75c37.67-9.49,71.42-28.55,104.5-48.34,7.68-4.59,15.41-9.1,23.14-13.59l2.81-1.64,2.45-1.42,2.34-1.37,2.6-1.22q2.4-1.78,3.05-4.39l.04-3.2.08-3.68v-4.06c.04-1.43.06-2.87.09-4.3.06-3.9.09-7.81.12-11.71.02-3.2.06-6.41.09-9.61.12-10.63.17-21.26.21-31.88.02-5.11.05-10.22.07-15.33.05-9.96.09-19.92.13-29.89.05-11.63.1-23.27.16-34.9.1-20.77.19-41.54.28-62.31.09-20.1.18-40.2.27-60.3l.02-3.76.07-14.95c.1-22.72.21-45.44.31-68.15l.02-3.48c.08-18.34.17-36.68.25-55.02v-2.87s.04-5.57.04-5.57c.02-4.33.04-8.65.04-12.97.01-6.89.05-13.76.24-20.65l.07-3.15c.04-1.82.1-3.63.19-5.44.08-4.11-.19-5.87-2.83-9.1l-2.61-2.09c-7.23-7.26-10.96-13.08-11.44-23.44.29-8.7,3.57-15.53,9.52-21.81,10.62-9.69,24.51-11.68,37.12-4.5h0c8.23,5.77,12.85,12.91,14.8,22.75.94,8.79-1.98,16.42-7.4,23.21q-1.6,1.79-3.66,3.38c-2.74,3.41-2.53,6.57-2.53,10.77l-.05,2.67c-.05,3.05-.06,6.11-.08,9.16l-.08,6.84c-.08,6.77-.13,13.53-.17,20.29-.03,4.93-.07,9.86-.11,14.79-.21,26.68-.34,53.35-.45,80.03l-.09,20.71c-.46,99.05-.48,198.09-.37,297.14l15.05-8.59c11.93-6.82,23.83-13.66,35.73-20.54,3.26-1.88,6.53-3.76,9.79-5.64,10.5-6.04,20.98-12.11,31.44-18.22,11.55-6.75,23.13-13.43,34.72-20.11,5.43-3.13,10.86-6.26,16.28-9.39l6.5-3.75,3.25-1.88,65-37.5,6.5-3.75c5.44-3.14,10.88-6.28,16.32-9.41,10.5-6.04,20.97-12.11,31.43-18.21,11.55-6.75,23.13-13.43,34.72-20.11,5.43-3.13,10.86-6.26,16.28-9.39l6.5-3.75,3.25-1.88,39-22.5,6.48-3.74q14.88-8.59,19.88-11.46c2.2-1.27,4.39-2.55,6.58-3.83,4.96-2.89,9.92-5.69,15.06-8.24q12.39-6.28,14.9-11.61.72-3.68,1.05-7.26c.71-7.68,6.25-12.77,11.91-17.53,7.44-5.31,15.9-5.7,24.73-4.34,7.74,2.01,13.86,7.63,18.36,14.09,4.33,7.55,5.57,14.74,3.68,23.33Z"/>
  <path d="M787.94,418.97l-1.69-2.19q-2.06-2.81-4-5h-2v-2l-1.75-1.45-2.25-1.55c-5.72-4.02-11.65-7.62-17.71-11.1-2.22-1.27-4.44-2.54-6.66-3.81l-5.32-3.05c-5.04-2.89-10.07-5.78-15.1-8.69l-6.46-3.73-3.25-1.88-191.75-110.62-9.75-5.62c-5.46-3.15-10.92-6.29-16.36-9.46-10.21-5.94-20.4-11.92-30.81-17.5l-2.45-1.3c-4.12-2.2-8.2-4.24-12.59-5.86-2.23-.8-4.29-1.64-6.44-2.67h0c-25.84-13.78-58.64-12.01-84.64.89-1.49.77-2.99,1.53-4.5,2.26-1.3.62-2.6,1.25-3.9,1.88l-1.93.94c-2.17,1.05-4.27,2.13-6.38,3.31l-1,2-2.56.62-2.44.38v2q-4.61,0-15.39,6.42c-6.15,3.78-12.43,7.08-18.9,10.26l-2.71,1.32v2c-5.16,1.19-9.26,3.09-13.81,5.78-1.66,1-3.32,1.99-4.99,2.97l-2.53,1.49c-8.3,4.91-16.79,9.37-25.43,13.65l-2.24,1.1v2q-3,0-5.43,1.28c-6.82,4.2-13.75,7.9-20.93,11.43l-2.64,1.29v2q-3,0-6,1.62c-2.11,1.27-4.24,2.5-6.39,3.7l-2.64,1.43c-2.97,1.61-5.94,3.22-8.91,4.82-1.93,1.04-3.87,2.08-5.8,3.12l-2.89,1.55-3,1.6-2.85,1.54c-1.54.82-3.05,1.69-4.52,2.61l-1,2-2.25.46q-2.75.54-5.23,1.71l-2.59,1.46c-2.96,1.66-5.9,3.35-8.83,5.08-6.7,3.97-13.49,7.58-20.47,11.01l-2.64,1.28v2q-3,0-4.9.84l-2.1,1.16c-2.38,1.31-4.75,2.64-7.11,3.99l-2.64,1.51-2.69,1.51-2.54,1.46q-2.34,1.33-4.02,2.53v2c-2.67,1-5.16,2.09-7.68,3.44l-2.64,1.56q-2.68,1.56-4.69,3v2l-4,1v2l-4,1v2l-4,1v2q-3,1-5.7,3l-2.99,2.44c-1.82,1.46-3.59,2.98-5.31,4.56v2q-3,1-4.19,3.06l-.81,1.94h-2l-1,3q-2,0-3.81,1.69l-2.19,2.31c-2.54,2.36-4.66,4.02-5.81,7.31l-.19,1.69h-2c-3.23,3.5-5.92,7.27-8.62,11.19-1.1,1.62-2.22,3.23-3.38,4.81-3.03,2.91-4.92,6.01-7.03,9.63l-1.47,2.56c-2.31,3.93-4.68,7.8-6.41,12.03-1.07,2.96-2.06,5.73-3.64,8.46-11.16,17.74-16.04,43.69-19.02,64.2l-.44,3.11c-1.59,10.85-2.37,21.51-2.58,32.47-.03,1.75-.07,3.49-.1,5.24-.38,17.85-.44,35.7-.4,53.56.01,4.53.02,9.06.02,13.58,0,7.9.02,15.8.03,23.7.03,21.65.05,43.3.05,64.96v3.37c0,31.91-.04,63.83-.23,95.74l-.02,2.76c-.06,10.23-.12,20.46-.19,30.69-.53,81.93-.73,163.85-.77,245.78,0,11.9-.01,23.79-.03,35.69-.02,13.63-.03,27.27-.02,40.9,0,7.04,0,14.09-.01,21.13-.01,5.93-.01,11.86-.01,17.79v7.34c-.05,19.97.63,39.82,3.59,59.59l.47,2.9c3.28,20.72,8.08,41.19,16.79,60.34l1.58,3.41,2.81,6.06h2l1,5h2q0,2,1.02,3.94l1.35,2.18q1.33,2.19,2.62,3.88h2v2q1.88,2.06,4,4l2,1v2l3,1v2l2,1c1.96,2.62,3.12,4.68,6.25,5.81l1.75.19v2c1.43,1.24,2.88,2.47,4.38,3.63l1.81,1.37c3.16,2.46,6.07,4.67,9.74,6.31l2.07.69v2l1.82,1.29,2.58,1.48,2.91,1.68c2.16,1.23,4.32,2.46,6.47,3.7l3.38,1.94c5.28,3.02,10.54,6.07,15.79,9.14,11.47,6.71,22.97,13.36,34.48,19.99,5.44,3.14,10.88,6.27,16.32,9.41l6.5,3.75,3.25,1.88,39,22.5,6.5,3.75c5.46,3.15,10.93,6.31,16.39,9.46l3.42,1.97,6.75,3.89c5.01,2.88,10.04,5.73,14.98,8.73,7.23,4.46,14.26,8.79,22.33,11.58,7.93,2.4,16.55,3.66,24.23-.18l2.08-1.26c2.51-1.47,3.6-2.07,4.55-4.85l.26-1.83h2c9.03-13.54,9.14-29.96,9.04-45.67-.18-19.06.1-38.11.39-57.16.35-22.83.65-45.65.57-68.48-.07-20.08.19-40.16.57-60.23.21-10.8.46-21.59.44-32.39-.04-10.82.05-21.63.18-32.44l.03-2.77c.06-4.76.11-9.51.17-14.27.38-30.9.76-61.79.59-92.68-.06-10.16-.06-20.31.33-30.46l.13-3.07c.42-10.24,1.15-19.58,6.56-28.55,1.48-2.35,2.92-4.65,4.19-7.11l.81-1.7h2l1-3,2.06-.69,1.94-.31v-2q3,0,6.34-.95c2.78-.84,5.58-1.59,8.41-2.26,11.54-2.4,19.84,2.17,29.3,8.11,4.63,2.92,9.35,5.67,14.1,8.4,2.22,1.27,4.43,2.54,6.64,3.82l3.39,1.96c5.53,3.18,11.06,6.37,16.59,9.56,6.5,3.75,13.01,7.51,19.51,11.26,10.56,6.09,21.13,12.17,31.65,18.33,9.66,5.65,19.35,11.24,29.07,16.78,8.74,4.97,17.44,9.99,26.13,15.06,10.42,6.08,20.85,12.14,31.3,18.15,5.44,3.14,10.88,6.27,16.32,9.41l6.5,3.75,3.25,1.88,39,22.5,6.5,3.75c5.43,3.13,10.85,6.26,16.28,9.39l6.57,3.79,3.27,1.89c6.45,3.71,12.89,7.45,19.32,11.21,10.71,6.29,21.34,12.86,32.56,18.23,10.32,4.55,19.17,7.14,30,3,3.56-1.81,7.4-3.2,8.73-7.16l.27-1.84h2c1.75-2.62,3.02-5.11,4.21-8.02l.79-1.98q5.39-12.46,5.21-50.59c-.01-2.78-.03-5.55-.03-8.32-.02-10.21-.07-20.42-.14-30.63l-.06-10.02c-.11-17.88-.22-35.76-.35-53.64-.03-4.26-.06-8.51-.09-12.77-.17-24.96-.22-49.94-.94-74.89l-.06-2.09c-.16-5.44-.18-10.84-1.02-16.22l-.5-2.83c-1.18-9.66-3.46-17.98-7-27h-2v-2c-4.27-7.22-9.22-13.76-16.94-17.38l-2.06-.62v-2l-1.42-1.09-2.04-1.2-2.33-1.39-2.59-1.51c-10.26-6.06-20.58-12.02-30.91-17.96-5.49-3.16-10.99-6.32-16.47-9.49l-6.49-3.74-3.25-1.88-117-67.5-6.5-3.75c-5.43-3.13-10.85-6.26-16.28-9.39l-6.57-3.79-3.27-1.89c-6.41-3.7-12.82-7.4-19.21-11.14-8.47-4.96-16.93-9.92-25.49-14.73l-2.36-1.32c-3.55-1.99-7.04-3.93-10.8-5.52l-2.01-.73v-2l-1.72-1.24-2.45-1.41-2.77-1.61c-2.09-1.19-4.17-2.4-6.24-3.61-2.23-1.3-4.46-2.6-6.7-3.9l-3.43-1.99-3.49-2.04-3.37-1.95c-2.87-1.66-5.63-3.18-8.69-4.47l-2.14-.8v-2h-2v-2c-1.95-2.4-3.03-4.11-3.98-7.1-1.86-8.58-3.63-16.74.92-24.71q2.06-3.19,3.31-6.12l.75-2.06h2l1-3h2l1-3h2v-2c2.95-1.04,5.32-2.21,7.94-3.94q3.06-2.06,6.44-3.81l2.62-1.25v-2l7-2v-2c4.23-1.31,8.07-2.94,12-5v-2l7-2v-2l7-2v-2c4.23-1.31,8.07-2.94,12-5v-2l7-2v-2l7-2v-2h3q3-2,6.19-3.62l2.81-1.38v-2l7-2v-2h3c2.57-1.71,5.17-3.21,7.89-4.67l1.8-.96,3.57-1.92,2.74-1.46v-2c3.11,0,4.35-.54,7-2v-2q3,0,4.81-.83l1.98-1.14,2.16-1.23c.76-.44,1.5-.87,2.24-1.3,2.61-1.49,5.21-2.99,7.81-4.5v-2q3,0,4.67-.77l1.86-1.11,2.16-1.27c1.62-.97,3.25-1.94,4.88-2.9l2.67-1.57c5-2.95,10.03-5.86,15.06-8.76l6.58-3.79c4.47-2.58,8.95-5.16,13.43-7.74,2.19-1.26,4.37-2.52,6.56-3.78l3.26-1.88c5.4-3.1,10.78-6.22,16.15-9.36l3.27-1.92,6.33-3.72c6.84-4.06,13.75-7.84,20.89-11.35l2.23-1.09v-2l7-2v-2q2,0,4.39-1.21c4.07-2.28,8.12-4.59,12.3-6.67l2.31-1.12v-2l7-2v-2l7-2v-2l5-1v-2l7-2v-2l7-2v-2c3.11,0,4.35-.54,7-2v-2l5-1v-2l7-2v-2c3.11,0,4.35-.54,7-2v-2q3,0,5.26-1.09l2.43-1.41c1.44-.83,2.88-1.66,4.31-2.5v-2l4-1v-2h2l1-3h2c3.09-4.06,5.77-8.41,8-13,2.57-7.59,3.13-16.43-.31-23.81ZM466.88,384.41l-1.62,1.38-2.44,2.62c-2.39,2.21-3.41,3.03-6.56,3.38v2c-11.69,3.67-18.58,4.2-29.7-1.34-4.78-.95-7.39.88-11.49,3.22-1.41.77-2.82,1.54-4.23,2.3l-1.87,1.05q-1.71.77-4.71.77v2l-2.71,1.32c-6.57,3.23-12.95,6.53-19.11,10.52-2.4,1.28-4.51,1.76-7.18,2.16v2c-1.6.84-3.2,1.67-4.81,2.5l-2.71,1.41q-2.48,1.09-5.48,1.09v2l-2.71,1.32c-6.57,3.23-12.95,6.53-19.11,10.52-2.4,1.28-4.51,1.76-7.18,2.16v2l-2.62,1.26c-13.96,6.79-27.94,14.08-41.03,22.43q-2.35,1.31-5.35,1.31v2c-2.65,1.46-3.89,2-7,2v2l-1.86,1.05c-2.8,1.58-5.59,3.17-8.39,4.76l-2.93,1.66-2.83,1.61-2.6,1.48q-2.38,1.44-4.57,3.12-1.81,1.32-3.81,1.32l-1,2q-1.56,1.29-3.44,2.62l-1.87,1.35q-1.69,1.02-3.69,1.02v2l-4,1v2l-4,1v2q-1.68,1.73-3.88,3.62l-2.18,1.91q-1.95,1.46-3.95,1.46v2h-2l-.81,1.75c-1.22,2.31-2.49,4.27-4.19,6.25h-2l-.75,2.19q-1.25,2.81-3.07,4.99c-2.62,3.39-4.39,6.91-6.24,10.76l-1.03,2.09c-.67,1.36-1.33,2.72-1.99,4.08-.81,1.66-1.64,3.31-2.48,4.95-11.08,22.54-16.64,48.94-17.44,73.93-.15,1.88-.32,3.75-.5,5.62-1.52,17.97-1.66,35.97-1.63,53.99,0,3.84,0,7.68,0,11.52,0,5.95.05,11.91.13,17.86,0,2.62-.08,5.22-.22,7.83-.07,3.78-.05,6.61,1.22,10.17,3.77,3.79,8.09,6,12.88,8.25,1.23.62,2.45,1.25,3.67,1.89,2.23,1.16,4.48,2.29,6.75,3.38,2.47,1.35,3.79,2.51,5.71,4.48,1.81,1.13,3.64,2.22,5.5,3.27l3.39,1.92,1.81,1.02c1.89,1.06,3.77,2.13,5.65,3.19l5.85,3.32c6.37,3.6,12.71,7.25,19.04,10.91l3.24,1.87c8.13,4.69,16.23,9.43,24.33,14.17,7.7,4.49,15.43,8.93,23.18,13.34,9.72,5.54,19.41,11.13,29.06,16.78,7.3,4.26,14.61,8.5,21.94,12.72l6.46,3.73c3.92,2.26,7.84,4.52,11.78,6.76,2.8,1.6,5.59,3.21,8.39,4.82l3.16,1.8,2.88,1.66,2.54,1.46,1.79,1.27v2l2.14.8c3,1.26,5.73,2.74,8.55,4.37l3.37,1.93,3.61,2.08c1.26.72,2.51,1.44,3.77,2.17,3.23,1.85,6.45,3.71,9.68,5.57,2.86,1.65,5.72,3.3,8.58,4.94,5.36,3.09,10.71,6.18,16.07,9.27,5.41,3.12,10.81,6.24,16.22,9.36l6.5,3.75,3.25,1.88,9.75,5.62,3.25,1.88,6.5,3.75c5.44,3.14,10.88,6.28,16.32,9.41,13.51,7.78,27,15.59,40.45,23.48,3.12,1.82,6.24,3.63,9.37,5.43l6.11,3.56,2.9,1.67,2.63,1.54,2.33,1.35,1.64,1.2v2l2.62.77c4.58,1.67,8.39,4.24,12.48,6.87,4.03,1.89,6.02,1.03,10.04-.39l2.11-.81c9.05-3.02,16.17-1.29,24.75,2.56l3,2v2l3,1v2h2c5.27,7.91,6.76,16.31,5.48,25.71-1.17,5.59-3.54,10.09-7.48,14.29h-2l-1,3c-7.05,4.95-15.42,6.78-24,6-3.06-.81-6.07-1.81-9-3l-1.99-.8c-5.45-3.25-10.28-9.37-11.85-15.47l-.6-3.3c-1.14-4.27-2.31-6.59-5.96-8.99-3.83-2.2-7.81-4.11-11.79-6.03-5.34-2.69-10.47-5.76-15.63-8.79l-3.12-1.8-2.96-1.72-2.62-1.52q-2.49-1.58-4.98-3.58c-2.5-1.99-5-3.56-7.77-5.15l-3.1-1.78-3.33-1.89c-1.16-.66-2.32-1.33-3.49-2-2.41-1.38-4.82-2.76-7.24-4.14-5.54-3.17-11.06-6.36-16.59-9.55l-6.5-3.75-65-37.5-3.25-1.88-6.5-3.75c-5.44-3.14-10.88-6.28-16.32-9.41-4.32-2.49-8.64-4.98-12.96-7.48-3.89-2.25-7.79-4.49-11.7-6.72-2.8-1.6-5.6-3.21-8.4-4.82l-3.16-1.8-2.87-1.66-2.54-1.46-1.79-1.27v-2l-2.17-.82c-2.85-1.19-5.42-2.58-8.09-4.13l-3.1-1.8-3.33-1.94-3.49-2.02c-2.41-1.4-4.83-2.8-7.24-4.2-5.52-3.21-11.05-6.4-16.59-9.58l-6.5-3.75-3.25-1.88-65-37.5-6.46-3.73c-6.81-3.93-13.61-7.86-20.42-11.79l-6.66-3.85c-5.87-3.4-11.77-6.73-17.71-10.01-.99,2.96-1.13,4.87-1.13,7.96v3.14s0,3.48,0,3.48v3.72c0,3.47,0,6.93,0,10.4,0,3.06,0,6.11,0,9.17,0,10.48,0,20.97,0,31.45v8.36c.02,24.83.05,49.66.09,74.48.03,21.15.05,42.3.05,63.46.02,38.22.06,76.45.14,114.67v2.77c.03,14.81.04,29.61.04,44.42,0,15.08.03,30.16.07,45.23.02,9.13.03,18.26.02,27.39,0,6.16,0,12.33.04,18.49.02,3.54.02,7.08,0,10.62-.02,3.82,0,7.63.03,11.45l-.03,3.39c.04,2.75.1,5.27.67,7.96q2.43,2.11,5,3,1.81,1.56,3,3v2h2c.82,1.58,1.63,3.16,2.44,4.75l1.37,2.67c3.04,6.58,3.41,14.79,1.63,21.81q-.75,1.77-2.43,4.77l-1.56,2.94c-.47.68-.95,1.36-1.44,2.06h-2v2q-4.35,4-8,4l-1,2c-7.25,3.32-14.47,3.83-22.04,1.32-1.68-.7-3.33-1.51-4.96-2.32l-2.25-1c-1.95-1.12-3.31-2.27-4.75-4v-2h-2l-.38-1.94-.62-2.06-2-1c-3.62-8.41-5.26-16.49-2.18-25.37,1.77-4.24,3.45-7.77,7.18-10.63h2v-2h2c.78-6.14,1.15-12.32,1.13-18.51v-2.79c0-3.07,0-6.15,0-9.22v-6.69c0-6.12,0-12.24,0-18.36,0-5.93,0-11.85,0-17.78,0-12.87,0-25.75,0-38.62,0-11.29,0-22.57,0-33.85v-11.4c0-28.56,0-57.12,0-85.67,0-25.3,0-50.59,0-75.89,0-31.51,0-63.02,0-94.53v-2.27c0-11.25,0-22.5,0-33.75,0-12.83,0-25.67,0-38.5,0-6.53,0-13.06,0-19.6.01-27.01-.16-53.99-1.03-80.99-.81-27.06.24-54.74,3.89-81.58l.35-2.59c.37-2.72.76-5.44,1.15-8.16l.36-2.49c.72-4.72,1.75-9.18,3.14-13.76.4-1.45.79-2.89,1.18-4.34.21-.75.41-1.51.62-2.28.42-1.54.84-3.08,1.25-4.62,2.06-7.51,4.83-14.61,7.94-21.76l1.44-3.38c.52-1.2,1.03-2.39,1.56-3.62l.8-1.95c2.09-4.95,4.56-9.63,7.2-14.3l1.01-1.79c2.06-3.59,4.34-6.79,6.99-9.96,1.56-2.05,3.09-4.14,4.56-6.25l1.44-1.75h2l1-3h2l.75-1.75c1.43-2.58,3.03-4.31,5.25-6.25h2v-2q1.46-1.51,3.38-3.12l1.9-1.63q1.73-1.24,3.73-1.24l1-3q1.96-1.57,4.38-3.12l2.4-1.57q2.23-1.3,5.23-2.3v-2q6.75-4,9-4v-2l1.94-.38,2.06-.62,1-2q3-2,6-2v-2l1.95-1.08c4.19-2.33,8.39-4.66,12.58-7,8.59-4.81,17.09-9.78,25.48-14.92l2.57-1.55,2.23-1.36c2.39-1.18,4.56-1.68,7.19-2.08v-2l2.87-1.4c8.58-4.22,16.99-8.66,25.28-13.45l2.19-1.24,1.93-1.11q1.74-.79,4.74-.79v-2l2.44-.38,2.56-.62,1-2c2.41-1.29,4.85-2.52,7.31-3.69,6.28-3.04,12.4-6.4,18.33-10.06q2.35-1.25,5.35-1.25v-2l2.44-.38,2.56-.62,1-2c2.13-1.38,4.29-2.69,6.5-3.94l1.91-1.09c4.73-2.64,9.35-4.53,14.59-5.97v-2l3.69-1.19c4.39-2.14,5.39-4.67,7-9.19l1.16-3.47c1.46-3.98,3.1-6.26,6.16-9.15h2v-2c1.58-.82,3.16-1.63,4.75-2.44l2.67-1.37c11.18-5.16,21.61-1.11,31.58,4.81v2h2c5.7,6.23,7.86,15.35,8.06,23.59-.45,5.42-1.86,10.81-5.44,15.03Z"/>
  <path d="M1600.52,566.59c-.18-1.8-.34-3.6-.49-5.4-1.29-15.18-3.48-29.76-7.34-44.51l-.94-3.52c-1.46-5.49-2.8-11.02-5.06-16.24-.97-2.11-1.87-4.25-2.72-6.42-3.35-8.85-6.84-17.19-11.46-25.46l-1.76-3.13-1.76-3.2-1.71-3.04q-1.55-2.77-3.03-4.88l-3-1-.55-1.86q-.55-2.61-3.94-7.06l-1.38-1.76c-1.63-2.17-3.34-4.27-5.12-6.31l-3-1-1-4-3-1v-2l-3-1v-2h-2c-1.03-2.58-1.55-3.77-4.06-5.06l-1.94-.94q-1-3-3.06-4.19l-1.94-.81v-2l-3-1v-2q-3-2-5.19-3.12l-1.81-.88v-2c-1.65-1.36-3.32-2.71-5.03-3.99l-2.16-1.57c-2.21-1.63-4.43-3.26-6.65-4.88l-2.16-1.56c-1.82-1.33-3.65-2.65-5.48-3.96l-1.64-1.16c-3.09-2.19-5.68-3.8-9.24-5.12l-2.63-.76v-2l-7-2v-2c-3.09-1.62-6.08-3.03-9.38-4.19l-2.62-.81v-2l-7-2v-2q-3.01-1.51-9-5c-2.7-1.74-4.69-2.92-7.81-3.69l-2.19-.31v-2q-2-1-4.62-1.56l-2.38-.44v-2c-1.58-.94-3.15-1.87-4.73-2.79l-1.95-1.14c-3.4-2.03-6.42-3.83-10.27-4.82l-2.04-.25v-2c-5.97-3.29-11.91-6.65-17.82-10.06l-3.24-1.87c-5.81-3.35-11.61-6.69-17.39-10.09l-3.37-1.99-6.43-3.79c-4.73-2.82-9.26-5.62-14.42-7.57l-2.33-.61v-2c-3.09-1.62-6.08-3.03-9.38-4.19l-2.62-.81v-2l-7-2v-2l-2-1c-2.64-1.71-4.74-2.94-7.81-3.69l-2.19-.31v-2q-2-1-4.62-1.56l-2.38-.44v-2q-2-1-4.62-1.56l-2.38-.44v-2l-5-1v-2q-2-1-4.62-1.56l-2.38-.44v-2q-2-1-4.63-1.56l-2.38-.44v-2c-3.08-1.49-6.07-3.04-9.02-4.77q-15.64-9.53-55.41-32.45c-6.52-3.76-13.05-7.52-19.57-11.28-5.46-3.15-10.93-6.31-16.4-9.46l-10.17-5.86c-5.05-2.91-10.11-5.81-15.13-8.78l-2.51-1.5c-1.52-.91-3.03-1.81-4.55-2.72-3.49-2.13-6.84-4.04-10.7-5.45l-2.55-.74v-2l-7-2v-2l-5-1v-2l-7-2v-2l-7-2v-2l-5-1v-2l-7-2v-2l-7-2v-2l-5-1v-2q-2-1-4.62-1.56l-2.38-.44v-2q-2-1-4.62-1.56l-2.38-.44v-2q-2-1-4.62-1.56l-2.38-.44v-2c-4.41-2.54-8.85-5.04-13.3-7.5-11.8-6.53-23.52-13.17-35.07-20.12-6.66-4.01-13.34-7.99-20.05-11.92l-3.14-1.83c-4.77-2.79-9.54-5.59-14.4-8.24-3.8-2.06-7.59-4.1-11.28-6.36-3.79-2.48-7.57-4.97-11.52-7.21l-3.25-1.81c-3.18-1.82-6.37-3.64-9.56-5.45l-2.8-1.58-5.95-3.35c-8.46-4.76-16.87-9.58-25.09-14.75-6.15-3.88-12.35-7.4-18.89-10.57-1.65-.79-3.29-1.6-4.92-2.42-6.5-3.32-13.14-6.25-19.91-8.95-1.63-.64-3.25-1.29-4.88-1.94-22.14-9.5-45.52-17.22-69.73-18.49l-2.71-.13h0c-18.07-1.05-35.59,3.33-52.71,8.85l-2.35.77c-4.98,1.62-9.69,3.44-14.34,5.84l-2.16,1.16c-6.73,3.59-13.38,7.33-19.99,11.15l-3.2,1.85c-8.58,4.96-17.14,9.94-25.69,14.94-8.09,4.73-16.2,9.41-24.34,14.04-9.33,5.32-18.64,10.66-27.91,16.08-10.42,6.09-20.85,12.14-31.31,18.16-3.26,1.88-6.53,3.76-9.79,5.64l-3.21,1.85-6.44,3.72c-6.22,3.6-12.44,7.18-18.7,10.71-1.89,1.07-3.78,2.14-5.67,3.21l-3.69,2.08c-8.08,4.51-20.56,9.54-25.36,17.8l-.7,1.76h-2c-3.78,4.34-6.04,9.57-6.98,15.21-.04,6.3,1.75,13.38,6.07,18.05l1.91,1.74c2.28,5.04,5.84,8.01,10.88,10.31l2.12.69v2l1.83,1.29,2.54,1.45,2.77,1.61c1.81,1.04,3.62,2.1,5.41,3.18,1.66,1.01,3.33,2.01,4.99,3.02l2.51,1.51c4.89,2.96,9.79,5.88,14.81,8.62,1.39.75,2.77,1.52,4.13,2.32,2.42,1.86,3.75,2.94,6.75,3.69l2.25.31v2c1.31.65,2.59,1.35,3.85,2.08,10.07,6.03,20.17,11.97,30.39,17.74l3.32,1.87,3.22,1.82,3.03,1.69c2.64,1.48,5.21,2.81,8.01,3.98l2.18.82v2l7,2v2l7,2v2c3.08,1.49,6.07,3.04,9.02,4.77,6.91,4.21,13.85,8.34,20.84,12.41,8.94,5.2,17.86,10.42,26.72,15.76,7.49,4.53,15,9.02,22.53,13.47l3.13,1.84,3.18,1.89,3.09,1.81c2.94,1.73,5.61,3.09,8.83,4.24l2.66.81v2l5,1v2l7,2v2c7.73,4.41,15.46,8.83,23.17,13.27l3.33,1.92c5.59,3.22,11.18,6.44,16.73,9.73l3.13,1.87c1.96,1.17,3.93,2.35,5.89,3.52,4.39,2.66,8.55,5.24,13.36,7.04l2.39.65v2q5.36,2.53,16,9.06c4.46,2.76,8.71,5.45,13.62,7.31l2.38.63v2c3.09,1.62,6.08,3.03,9.38,4.19l2.62.81v2q2,1,4.62,1.56l2.38.44v2l2.42,1.66,3.21,1.84c3.23,1.88,6.25,3.45,9.77,4.72l2.6.78v2q2.2,1.1,5,4.56,1.56,1.94,3,3.44h2v2c.98,1.36,1.96,2.72,2.91,4.1,5.51,9.63,5.54,19.45,2.88,29.85-.51,1.97-.97,3.95-1.39,5.95l-.4,2.1h-2q-3.69,6.98-19.62,16.1c-2.23,1.26-4.46,2.53-6.69,3.81-1.78,1.02-3.56,2.03-5.34,3.05-5.09,2.9-10.17,5.81-15.24,8.74l-3.23,1.87c-7.28,4.2-14.55,8.41-21.81,12.65-9.06,5.31-18.16,10.56-27.28,15.76-9.33,5.32-18.64,10.66-27.91,16.08-10.42,6.09-20.85,12.14-31.31,18.15-5.44,3.14-10.88,6.27-16.32,9.41l-6.5,3.75-65,37.5-3.25,1.88-6.5,3.75c-5.43,3.13-10.85,6.26-16.28,9.39l-6.57,3.78-3.27,1.89c-5.32,3.06-10.64,6.14-15.95,9.23l-3.02,1.77-5.97,3.5c-5.05,2.97-10.11,5.93-15.24,8.76l-3.37,1.85c-2.21,1.22-4.43,2.43-6.64,3.64-8.24,4.4-15.93,9.16-22.69,15.69v2h-2c-4.52,4.52-6.58,10.09-7.25,16.37-.18,7.15,1.68,14.73,6.63,20.13l1.62,1.5c2.29,2.88,4.13,5.48,7.31,7.38l1.69.62v2l4,1v2q3,2,5.69,3.12l2.31.88v2q2.28,1.14,8.42,4.65l2.7,1.54c5.06,2.89,10.12,5.78,15.14,8.74l3.29,1.95,6.45,3.81,3.09,1.85,2.91,1.72c2.68,1.6,4.77,2.69,7.81,3.41l2.19.33v2l7,2v2l5,1v2l7,2v2l7,2v2q3,1,5.32,2.25l2.75,1.6,3.12,1.81c1.7.99,3.41,1.98,5.11,2.97l7.21,4.18c7.34,4.26,14.68,8.5,22.04,12.74,4.19,2.41,8.37,4.82,12.55,7.25,1.98,1.16,3.96,2.31,5.94,3.46l2.77,1.61,2.6,1.53,2.41,1.4c2.39,1.39,4.22,2.21,6.93,2.83l2.24.36v2c1.69.94,3.39,1.87,5.09,2.79l2.1,1.14c3.57,1.98,6.83,3.81,10.8,4.82l2.01.25v2l5,2.5c2.99,1.48,5.97,2.96,8.93,4.5,7.85,4.11,15.47,7.87,24.05,10.25l3.02.75c21.18,5.29,39.7-3.55,57.73-13.97,1.66-.97,3.33-1.93,4.99-2.9,8.06-4.67,16.12-9.36,24.16-14.07,8.09-4.73,16.2-9.41,24.34-14.04,9.33-5.32,18.64-10.66,27.91-16.08,10.42-6.09,20.85-12.14,31.31-18.15,5.44-3.14,10.88-6.27,16.32-9.41l6.5-3.75,39-22.5,3.25-1.88,6.5-3.75c5.43-3.13,10.85-6.26,16.28-9.39l3.29-1.89,6.56-3.78c5.34-3.07,10.67-6.14,15.98-9.26,10.82-6.4,21.65-12.67,32.83-18.43,6.06-3.1,12.05-6.25,17.9-9.73,7.4-4.45,14.82-8.89,22.65-12.57,7.92-3.25,13.24-1.54,20.99,1.53,2.05.83,4.13,1.56,6.22,2.27l2.31.75v2h2q1.02,3.07,4.44,9.44c5.76,10.56,5.86,21.89,5.8,33.69,0,1.58-.01,3.16-.01,4.74,0,4.38,0,8.76-.02,13.15-.01,4.78-.02,9.56-.02,14.34,0,8.29-.01,16.58-.03,24.88-.02,12.1-.04,24.2-.05,36.3-.01,19.63-.03,39.25-.06,58.88v3.56s-.08,53.74-.08,53.74v3.57c-.03,19.7-.05,39.4-.07,59.1,0,12.13-.02,24.26-.05,36.4-.02,8.38-.03,16.76-.04,25.15,0,4.84,0,9.68-.02,14.52-.02,4.48-.02,8.96-.03,13.44v4.91c-.05,11.15-.6,22.16,5.25,32.05l1.1,1.77c1.28,2.14,2.57,4.26,3.88,6.38h2v2l3,1v2c3.23,1.96,6.47,3.64,10,5,8.44,1.35,17.25-.45,24.74-4.47l2.85-1.71,3.18-1.89c2.06-1.23,4.14-2.45,6.21-3.66l2.96-1.7,3.03-1.75c6.79-3.92,13.58-7.83,20.37-11.74,10.54-6.07,21.09-12.15,31.59-18.29,9.06-5.31,18.16-10.56,27.28-15.76,9.33-5.32,18.64-10.66,27.91-16.08,10.42-6.08,20.85-12.14,31.31-18.15,5.44-3.14,10.88-6.27,16.32-9.41l6.5-3.75,65-37.5,3.25-1.88,6.5-3.75c5.51-3.18,11.01-6.36,16.52-9.52l5.35-3.06,5.19-2.98c5.71-3.26,11.39-6.51,16.85-10.18,2.3-1.57,4.59-3.07,6.97-4.52,3.33-1.93,6.56-3.82,9.61-6.18,2.49-2.06,5.07-3.82,7.75-5.62q2.64-1.75,4.75-3.44l1-3q2,0,4.81-2.69c1.06-1.11,2.12-2.21,3.19-3.31,2.55-2.39,4.65-4,5.81-7.31l.19-1.69h2l1-5h2c3.11-6.48,5.87-12.96,8.03-19.82l.97-3.18c5.04-15.04,6.08-30.93,6.02-46.73-.03-4.1.02-8.19.14-12.28l.07-2.16.14-4.42c.39-12.31.73-24.6.65-36.91-.09-6.09.02-12.18.33-18.26.6-11.08.92-22.14,1.11-33.24q.07-4.2.24-12.73l.06-3.28c.14-7.4.29-14.79.47-22.19.11-4.77.23-9.54.35-14.31.24-9.52.47-19.04.43-28.56-.02-5.31.07-10.58.36-15.88.65-11.5.75-22.99.77-34.5v-2.74c.03-10.03.05-20.01-.85-30.01ZM1459.25,869.78h-2l-.75,2.25c-2.98,6.57-8.9,9.01-15.25,11.75-8.91,2.7-16.54.21-25-3v-2l-4-1v-2l-3-1c-5.23-6.65-7.15-14.62-7-23,.74-3.76,1.78-7.37,3-11h2l.69-2.19c2.1-4.5,4.98-7.17,9.43-9.32,3.16-2.73,3.32-3.04,3.65-6.94.04-1.93.06-3.87.04-5.8l.05-3.29c.04-2.46.07-4.91.09-7.37.04-4.38.15-8.76.27-13.13.19-6.76.36-13.51.52-20.27l.06-2.67.13-5.36c.08-3.49.16-6.98.25-10.48.46-19.36.9-38.73,1.31-58.1.04-2.11.09-4.22.14-6.33q1.97-91.26-12.63-113.76c-.71-1.68-1.42-3.35-2.12-5.03-2.32-5.17-4.79-10.03-8.88-13.97q-3-4.56-3-7l-3-1c-.7-1.32-1.37-2.65-2-4l-1.62-1.62-1.37-1.38v-2l-3-1q-1.75-1.71-3.56-3.81l-1.82-2.08c-1.52-1.97-2.52-3.89-3.62-6.1-1.32-.7-2.65-1.37-4-2-2.14-1.56-4.03-3.21-6-5v-2l-1.81-.88q-2.19-1.12-5.19-3.12v-2l-4-1v-2l-4-1v-2l-4-1v-2l-2.75-.81c-2.98-1.09-4.94-2.05-7.25-4.19v-2l-2.24-.85c-2.48-1.04-4.6-2.17-6.88-3.59-3.54-2.18-7.13-4.29-10.75-6.33l-2.61-1.48c-1.75-.99-3.5-1.98-5.26-2.96l-2.44-1.39-2.22-1.25-1.59-1.14v-2l-7-2v-2l-2.14-.3c-3.32-.81-5.74-2.14-8.69-3.87l-3.37-1.96-3.49-2.06-3.44-2c-5.95-3.47-11.88-7-17.77-10.58l-2.11-1.23-2.03-1.23c-2.49-.97-3.5-.71-5.97.23-1.41.68-2.79,1.41-4.15,2.18l-2.35,1.32-2.43,1.38-2.42,1.35c-3.12,1.76-6.23,3.51-9.27,5.4q-2.37,1.37-5.38,2.6c-5.88,2.45-11.3,5.84-16.8,9.02l-3.74,2.15c-3.2,1.84-6.4,3.68-9.59,5.53-2.85,1.65-5.7,3.29-8.56,4.93-5.36,3.09-10.72,6.18-16.07,9.28-5.41,3.12-10.81,6.24-16.22,9.36l-6.5,3.75-42.25,24.38-22.99,13.27-3.36,1.94-6.61,3.81c-4.87,2.81-9.73,5.62-14.57,8.46-7.04,4.13-14.05,8.15-21.4,11.71-10.02,4.86-19.51,10.64-29.1,16.3-5.34,3.14-10.72,6.23-16.09,9.33l-6.56,3.78-3.29,1.89c-5.43,3.13-10.86,6.26-16.28,9.39l-6.5,3.75-3.25,1.88-35.75,20.62-3.25,1.88-6.47,3.73c-6.71,3.87-13.43,7.75-20.14,11.62-3.3,1.9-6.6,3.8-9.9,5.71-3.31,1.91-6.62,3.82-9.92,5.75-6.7,3.89-13.48,7.48-20.49,10.78-3.79,1.82-6.45,3.74-9.33,6.79h-2l.59,1.64c.53,3.07-.14,5.14-1.03,8.11l-.87,2.98-.69,2.27h-2l-.31,1.75c-.8,2.61-1.88,4.22-3.69,6.25h-2v2c-1.39.82-2.79,1.63-4.19,2.44l-2.36,1.37c-6.16,2.99-14.13,3.27-20.74,1.63-1.95-.72-3.85-1.53-5.72-2.43l-3.5-1.69-2.5-1.31v-2h-2c-6.53-6.95-8.31-14.92-8.22-24.11.47-6.08,2.58-11.97,6.22-16.89h2l1-3c5.61-5.61,13.31-7.29,21-8q3.3.79,6.64,1.85c7.17,1.66,10.81.35,16.98-3.42l3.2-2.12c1.12-.69,2.24-1.39,3.39-2.1,2.24-1.39,4.47-2.8,6.69-4.23,4.2-2.68,8.48-5.21,12.79-7.73l1.97-1.19c3.35-2,6.7-3.65,10.3-5.14,4.8-2.18,9.33-4.9,13.91-7.49l3.39-1.91c6.76-3.82,13.48-7.68,20.15-11.64,6.31-3.74,12.66-7.41,19.02-11.08l3.35-1.93,6.81-3.92c5.47-3.15,10.93-6.3,16.4-9.46l6.5-3.75,3.25-1.88,39.01-22.5,6.45-3.72c9.14-5.28,18.29-10.55,27.44-15.82,1.02-.59,2.05-1.18,3.1-1.79l2.72-1.57c1.74-1.01,3.47-2.04,5.18-3.09q2.36-1.39,5.37-2.62c5.88-2.45,11.3-5.84,16.8-9.02l3.74-2.15c3.2-1.84,6.4-3.68,9.59-5.53,2.85-1.65,5.7-3.29,8.56-4.93,5.36-3.09,10.72-6.18,16.07-9.28,5.41-3.12,10.81-6.24,16.22-9.36l6.5-3.75,39-22.5,3.26-1.88,21.61-12.47,12.1-6.98c5.17-2.99,10.35-5.96,15.54-8.92-2.1-2.27-4.09-3.74-6.81-5.19-4.11-2.22-8.19-4.5-12.25-6.81l-1.85-1.05c-3.13-1.8-6.23-3.63-9.28-5.57-3.86-2.46-7.86-4.6-11.89-6.77-6.81-3.73-13.47-7.72-20.11-11.73-3.8-2.29-7.65-4.46-11.54-6.6-2.41-1.36-4.78-2.78-7.15-4.21-3.53-2.13-7.12-4.17-10.75-6.12-3.19-1.72-6.32-3.48-9.38-5.44-3.92-2.5-7.98-4.69-12.07-6.9-6.77-3.7-13.39-7.67-19.99-11.66-3.47-2.1-6.99-4.08-10.56-6-3.84-2.08-7.61-4.3-11.28-6.66-2.48-1.52-5.03-2.9-7.59-4.28-3.24-1.74-6.4-3.52-9.5-5.5-3.92-2.5-7.98-4.69-12.07-6.9-6.77-3.7-13.39-7.67-19.99-11.66-3.47-2.1-6.99-4.08-10.56-6-3.19-1.72-6.32-3.49-9.38-5.44-3.92-2.5-7.98-4.69-12.08-6.9-4.03-2.21-7.99-4.55-11.95-6.88-2.82-1.62-5.66-3.19-8.53-4.72-4.72-2.55-9.19-5.37-13.69-8.28-3.56-2.23-7.23-4.21-10.93-6.19-4-2.18-7.92-4.5-11.84-6.81-2.82-1.62-5.66-3.19-8.54-4.72-3.73-2.02-7.38-4.19-10.94-6.5-4.37-2.82-8.82-5.37-13.4-7.83-3.81-2.05-7.58-4.17-11.35-6.3l-2.01-1.13c-4.26-2.4-8.5-4.82-12.74-7.25l-3.31-1.88c-2.88-1.64-5.72-3.35-8.56-5.06-3.17-1.92-6.38-3.77-9.62-5.56-4.01-2.21-7.94-4.54-11.85-6.91-8.19-4.93-16.5-9.64-24.84-14.31-3.82-2.14-7.61-4.33-11.36-6.59l-2.33-1.4c-1.38-.84-2.74-1.7-4.09-2.58-2.53-1.59-4.35-2.73-7.39-2.65-1.54.55-3.08,1.11-4.62,1.69-9.08,3.27-16.09,2.96-25.01-.75-2.02-.96-4.03-1.94-6-3v-2l-3-1v-2h-2c-4.92-8.04-7.56-15.86-5.5-25.29,2.74-9.04,7.08-15.71,15.44-20.33,11.38-5.11,20.09-4.04,31.1,1.69h0c5.03,3.2,8.29,7.66,10.96,12.94.32,1.77.62,3.54.88,5.32,1.35,5.12,3.22,6.99,7.69,9.77,2.36,1.28,4.72,2.52,7.11,3.73,1.27.68,2.54,1.36,3.8,2.04,2.58,1.39,5.17,2.77,7.76,4.14,5.54,2.94,10.92,6.13,16.31,9.32,1.95,1.14,3.9,2.28,5.85,3.42l2.82,1.65c4.4,2.57,8.8,5.13,13.2,7.68.74.43,1.48.86,2.24,1.3,3.59,2.08,7.2,4.13,10.83,6.13,4.38,2.42,8.69,4.95,13,7.5,5.12,3.02,10.25,6.01,15.46,8.86,3.24,1.82,6.41,3.76,9.59,5.69,2.15,1.27,4.31,2.51,6.5,3.7,5.3,2.91,10.49,6.01,15.7,9.09,4.36,2.58,8.77,5.09,13.21,7.53,2.33,1.31,4.62,2.69,6.9,4.07,3.53,2.13,7.12,4.17,10.75,6.12,3.19,1.72,6.32,3.48,9.38,5.44,6.73,4.29,13.83,8.01,21,11.5v2l2.38.62c4.03,1.53,7.4,3.55,11.05,5.8,2.32,1.42,4.68,2.77,7.07,4.07,3.16,1.74,6.29,3.56,9.38,5.44,3.53,2.13,7.12,4.17,10.75,6.12,3.19,1.72,6.32,3.48,9.38,5.44,3.92,2.5,7.98,4.69,12.07,6.9,6.77,3.71,13.39,7.67,19.99,11.66,3.47,2.1,6.99,4.07,10.56,6,3.84,2.08,7.61,4.3,11.28,6.66,2.48,1.52,5.03,2.9,7.59,4.28,3.24,1.74,6.4,3.52,9.5,5.5,3.92,2.5,7.98,4.69,12.07,6.9,6.77,3.7,13.39,7.67,19.99,11.66,3.47,2.1,6.99,4.08,10.56,6,3.19,1.72,6.32,3.49,9.38,5.44,3.92,2.5,7.98,4.69,12.08,6.9,4.03,2.21,7.99,4.55,11.95,6.88,2.82,1.62,5.66,3.19,8.53,4.72,4.72,2.55,9.19,5.37,13.69,8.28,3.56,2.23,7.23,4.21,10.93,6.19,6.74,3.66,13.32,7.62,19.88,11.59,3.47,2.1,6.99,4.08,10.56,6,3.19,1.72,6.32,3.49,9.38,5.44,3.92,2.5,7.98,4.69,12.08,6.9,3.92,2.15,7.77,4.42,11.61,6.7,3.75,2.16,7.55,4.22,11.35,6.29,4.84,2.64,9.65,5.34,14.46,8.05l2.9,1.62c6.68,3.76,13.17,7.77,19.6,11.94l3.23,2.07,2.52,1.61c4.01,2.56,8.09,5,12.25,7.31v2l1.95.62c4.32,1.95,8.01,4.63,11.86,7.38l2.39,1.66,2.26,1.59c.68.48,1.36.96,2.06,1.45l1.48,1.3v2l4,1v2h2v2l5,2v2h2q1.62,1.38,3,3v2l1.75.75c2.58,1.43,4.31,3.03,6.25,5.25v2l3,1v2l3,1v2h2q1.15,1.39,2.38,3.25c1.54,2.26,2.9,4.02,4.88,5.94,1.93,2,2.12,3.19,2.75,5.81l3,1c1.77,2.63,3.39,5.27,5,8l1.96,3.1c3.88,6.15,7.28,12.18,10.04,18.9l2.06,4.38c2.24,5.07,3.62,10.25,4.94,15.62l.78,3.03c1.84,7.45,2.94,14.83,3.79,22.44q.43,3.53.92,5.74c.67,3.65.87,7.3,1.06,11l.13,2.4c.41,8.34.46,16.67.45,25.02v4.91c0,4.31,0,8.62,0,12.93,0,2.67,0,5.35,0,8.02-.02,23.85-.13,47.68-.98,71.52-.14,4.01-.27,8.01-.4,12.02-.12,3.9-.24,7.79-.37,11.69-.34,10.6-.65,21.19-.93,31.79-.05,1.86-.1,3.72-.16,5.57-.07,2.59-.14,5.19-.21,7.78l-.07,2.36c-.08,3.22-.04,5.69.99,8.77l2.31,1.75c7.08,5.93,8.22,14,9,22.75-.42,4.73-1.8,9.01-3.31,13.5Z"/>
</svg>